<svg width="40" height="315" viewBox="0 0 40 315" fill="none" xmlns="http://www.w3.org/2000/svg">
<path d="M38.9286 283.106C39.5179 283.106 40 282.624 40 282.034V278.463C40 277.874 39.5179 277.391 38.9286 277.391H37.1429V274.534C37.1429 271.383 34.5804 268.82 31.4286 268.82H5.71429C2.5625 268.82 0 271.383 0 274.534V308.82C0 311.972 2.5625 314.534 5.71429 314.534H31.4286C34.5804 314.534 37.1429 311.972 37.1429 308.82V305.963H38.9286C39.5179 305.963 40 305.481 40 304.892V301.32C40 300.731 39.5179 300.249 38.9286 300.249H37.1429V294.534H38.9286C39.5179 294.534 40 294.052 40 293.463V289.892C40 289.302 39.5179 288.82 38.9286 288.82H37.1429V283.106H38.9286ZM34.2857 308.82C34.2857 310.392 33 311.677 31.4286 311.677H5.71429C4.14286 311.677 2.85714 310.392 2.85714 308.82V274.534C2.85714 272.963 4.14286 271.677 5.71429 271.677H31.4286C33 271.677 34.2857 272.963 34.2857 274.534V308.82ZM18.5714 293.106C22.5179 293.106 25.7143 289.909 25.7143 285.963C25.7143 282.016 22.5179 278.82 18.5714 278.82C14.625 278.82 11.4286 282.016 11.4286 285.963C11.4286 289.909 14.625 293.106 18.5714 293.106ZM18.5714 281.677C20.9375 281.677 22.8571 283.597 22.8571 285.963C22.8571 288.329 20.9375 290.249 18.5714 290.249C16.2054 290.249 14.2857 288.329 14.2857 285.963C14.2857 283.597 16.2054 281.677 18.5714 281.677ZM22.75 294.534C21.0089 294.534 20.5714 295.159 18.5714 295.159C16.5714 295.159 16.1339 294.534 14.3929 294.534C12.5 294.534 10.6607 295.374 9.58929 296.981C8.94643 297.936 8.57143 299.088 8.57143 300.329V303.82C8.57143 304.213 8.89286 304.534 9.28571 304.534H10.7143C11.1071 304.534 11.4286 304.213 11.4286 303.82V300.329C11.4286 299.704 11.6161 299.097 11.9643 298.579C12.4643 297.838 13.375 297.4 14.4018 297.4C15.5089 297.4 16.2589 298.025 18.5804 298.025C20.8929 298.025 21.6429 297.4 22.7589 297.4C23.7857 297.4 24.6964 297.847 25.1964 298.579C25.5446 299.097 25.7321 299.704 25.7321 300.329V303.82C25.7321 304.213 26.0536 304.534 26.4464 304.534H27.875C28.2679 304.534 28.5893 304.213 28.5893 303.82V300.329C28.5893 299.088 28.2143 297.936 27.5714 296.981C26.4732 295.374 24.6339 294.534 22.75 294.534Z" fill="#939393"/>
<path d="M28.5714 199.538H28.1518C27.0661 199.538 26.0089 199.797 24.9821 200.146C21.75 201.242 18.2465 201.242 15.0143 200.146C13.9893 199.797 12.9348 199.54 11.8518 199.54H11.4286C8.39784 199.54 5.4912 200.744 3.34798 202.887C1.20476 205.03 0.000473553 207.936 0 210.967C0 211.725 0.30102 212.451 0.836838 212.987C1.37266 213.523 2.09938 213.824 2.85714 213.824H37.1429C37.9006 213.824 38.6273 213.523 39.1632 212.987C39.699 212.451 40 211.725 40 210.967C40 207.936 38.7959 205.029 36.6526 202.886C34.5094 200.743 31.6025 199.538 28.5714 199.538ZM2.85714 210.967C2.85951 208.694 3.76332 206.516 5.37027 204.909C6.97721 203.302 9.15601 202.398 11.4286 202.396H11.8518C12.4696 202.396 13.1839 202.54 14.0982 202.85C17.9245 204.148 22.0719 204.148 25.8982 202.85C26.8188 202.538 27.5348 202.394 28.1518 202.394H28.5714C30.844 202.396 33.0228 203.3 34.6297 204.907C36.2367 206.514 37.1405 208.693 37.1429 210.965L2.85714 210.967ZM4.28571 188.11C4.6646 188.11 5.02796 187.959 5.29587 187.691C5.56378 187.424 5.71429 187.06 5.71429 186.681V185.253C5.71429 177.376 12.1232 170.967 20 170.967C27.8768 170.967 34.2857 177.376 34.2857 185.253V186.681C34.2836 188.575 33.5304 190.391 32.1913 191.73C30.8522 193.069 29.0366 193.822 27.1429 193.824H24.2857C24.2857 193.066 23.9847 192.34 23.4489 191.804C22.9131 191.268 22.1863 190.967 21.4286 190.967H18.5714C17.8137 190.967 17.0869 191.268 16.5511 191.804C16.0153 192.34 15.7143 193.066 15.7143 193.824C15.7143 194.582 16.0153 195.309 16.5511 195.844C17.0869 196.38 17.8137 196.681 18.5714 196.681H27.1429C29.794 196.678 32.3356 195.623 34.2103 193.749C36.0849 191.874 37.1395 189.332 37.1429 186.681V185.253C37.1429 175.799 29.4536 168.11 20 168.11C10.5464 168.11 2.85714 175.799 2.85714 185.253V186.681C2.85714 187.06 3.00765 187.424 3.27556 187.691C3.54347 187.959 3.90683 188.11 4.28571 188.11ZM20 176.681C21.6553 176.674 23.2771 177.148 24.6676 178.046C26.0582 178.944 27.1575 180.228 27.8316 181.739C28.5057 183.251 28.7254 184.927 28.4641 186.561C28.2028 188.196 27.4717 189.719 26.3598 190.946C26.3598 190.954 26.3714 190.959 26.3759 190.967H27.1429C27.8678 190.965 28.5803 190.78 29.2137 190.427C29.847 190.074 30.3803 189.566 30.7634 188.951C31.1607 187.785 31.4286 186.555 31.4286 185.253C31.4286 182.222 30.2245 179.315 28.0812 177.172C25.9379 175.028 23.031 173.824 20 173.824C16.969 173.824 14.0621 175.028 11.9188 177.172C9.77551 179.315 8.57143 182.222 8.57143 185.253C8.57143 188.862 10.2768 192.038 12.8884 194.134C12.883 194.03 12.8571 193.93 12.8571 193.824C12.8636 192.818 13.1388 191.831 13.6545 190.967C12.5369 189.742 11.8004 188.218 11.5349 186.581C11.2694 184.945 11.4865 183.266 12.1596 181.751C12.8327 180.236 13.9326 178.949 15.325 178.049C16.7174 177.148 18.3419 176.673 20 176.681Z" fill="#939393"/>
<path d="M35.7576 82H35.7465C34.0743 82.0083 25.6944 82.6132 20.4993 85.3396C20.2181 85.4868 19.7819 85.4868 19.5007 85.3396C14.3049 82.6132 5.925 82.0083 4.25347 82H4.24236C1.90278 82 0 83.8382 0 86.0979V106.702C0 108.883 1.76458 110.68 4.01736 110.792C6.43195 110.915 12.4917 111.366 16.6486 112.901C17.0146 113.037 17.3875 113.111 17.7771 113.111H22.2215C22.6118 113.111 22.9847 113.036 23.3507 112.901C27.5083 111.366 33.5674 110.915 35.984 110.792C38.2347 110.68 39.9993 108.884 39.9993 106.703V86.0979C40 83.8382 38.0972 82 35.7576 82ZM18.8889 109.847C18.8889 110.445 18.3931 110.898 17.8292 110.898C17.7063 110.898 17.5799 110.876 17.4549 110.83C13.1181 109.218 7.10833 108.724 4.12778 108.572C3.05903 108.519 2.22222 107.697 2.22222 106.702V86.0979C2.22222 85.0639 3.12917 84.2229 4.24236 84.2229C5.58125 84.2299 12.7465 84.7354 17.584 86.8819C18.366 87.2292 18.8785 87.9757 18.8799 88.8153L18.8889 95.7819V109.847ZM37.7778 106.702C37.7778 107.697 36.941 108.519 35.8715 108.572C32.891 108.724 26.8813 109.218 22.5444 110.83C22.4194 110.876 22.2931 110.898 22.1701 110.898C21.6069 110.898 21.1104 110.445 21.1104 109.847V95.7819L21.1194 88.8153C21.1201 87.9757 21.6333 87.2292 22.4153 86.8819C27.2528 84.7354 34.4181 84.2299 35.757 84.2229C36.8701 84.2229 37.7771 85.0639 37.7771 86.0979V106.702H37.7778Z" fill="#939393"/>
<path d="M38.3333 0H6.11111C5.19208 0 4.44444 0.757055 4.44444 1.6875V2.25H1.66667C0.746181 2.25 0 3.00551 0 3.9375V23.625C0 25.489 1.49236 27 3.33333 27H38.3333C39.2523 27 40 26.2429 40 25.3125V1.6875C40 0.757055 39.2523 0 38.3333 0ZM2.22222 23.625V4.5H4.44444V23.625C4.44444 24.2453 3.94597 24.75 3.33333 24.75C2.72069 24.75 2.22222 24.2453 2.22222 23.625ZM37.7778 24.75H6.47625C6.60248 24.3887 6.66688 24.0082 6.66667 23.625V2.25H37.7778V24.75ZM9.72222 18H21.3889C21.8491 18 22.2222 17.6222 22.2222 17.1562V5.34375C22.2222 4.87779 21.8491 4.5 21.3889 4.5H9.72222C9.26201 4.5 8.88889 4.87779 8.88889 5.34375V17.1562C8.88889 17.6222 9.26201 18 9.72222 18ZM11.1111 6.75H20V15.75H11.1111V6.75ZM8.88889 21.6562V21.0938C8.88889 20.6278 9.26201 20.25 9.72222 20.25H21.3889C21.8491 20.25 22.2222 20.6278 22.2222 21.0938V21.6562C22.2222 22.1222 21.8491 22.5 21.3889 22.5H9.72222C9.26201 22.5 8.88889 22.1222 8.88889 21.6562ZM24.4444 21.6562V21.0938C24.4444 20.6278 24.8176 20.25 25.2778 20.25H34.7222C35.1824 20.25 35.5556 20.6278 35.5556 21.0938V21.6562C35.5556 22.1222 35.1824 22.5 34.7222 22.5H25.2778C24.8176 22.5 24.4444 22.1222 24.4444 21.6562ZM24.4444 17.1562V16.5938C24.4444 16.1278 24.8176 15.75 25.2778 15.75H34.7222C35.1824 15.75 35.5556 16.1278 35.5556 16.5938V17.1562C35.5556 17.6222 35.1824 18 34.7222 18H25.2778C24.8176 18 24.4444 17.6222 24.4444 17.1562ZM24.4444 8.15625V7.59375C24.4444 7.12779 24.8176 6.75 25.2778 6.75H34.7222C35.1824 6.75 35.5556 7.12779 35.5556 7.59375V8.15625C35.5556 8.62221 35.1824 9 34.7222 9H25.2778C24.8176 9 24.4444 8.62221 24.4444 8.15625ZM24.4444 12.6562V12.0938C24.4444 11.6278 24.8176 11.25 25.2778 11.25H34.7222C35.1824 11.25 35.5556 11.6278 35.5556 12.0938V12.6562C35.5556 13.1222 35.1824 13.5 34.7222 13.5H25.2778C24.8176 13.5 24.4444 13.1222 24.4444 12.6562Z" fill="#2A86B1"/>
</svg>
